<svg xmlns="http://www.w3.org/2000/svg" xmlns:xlink="http://www.w3.org/1999/xlink" preserveAspectRatio="xMidYMid" width="19" height="10" viewBox="0 0 19 10">
  <defs>
    <style>

      .cls-2 {
        fill: #444444;
      }
    </style>
  </defs>
  <path d="M17.692,1.249 C16.939,0.406 15.883,-0.015 14.524,-0.015 C13.523,-0.015 12.618,0.272 11.808,0.846 C10.998,1.420 10.207,2.240 9.434,3.306 C8.620,2.223 7.806,1.399 6.992,0.834 C6.179,0.268 5.279,-0.015 4.295,-0.015 C3.090,-0.015 2.071,0.411 1.237,1.261 C0.403,2.111 -0.014,3.143 -0.014,4.355 C-0.014,5.259 0.154,6.081 0.492,6.821 C0.830,7.562 1.334,8.160 2.006,8.616 C2.677,9.071 3.460,9.299 4.356,9.299 C5.308,9.299 6.191,9.012 7.005,8.439 C7.818,7.865 8.628,7.049 9.434,5.991 C10.280,7.122 11.106,7.956 11.912,8.494 C12.718,9.031 13.576,9.299 14.488,9.299 C15.716,9.299 16.746,8.856 17.576,7.969 C18.406,7.082 18.821,5.946 18.821,4.563 C18.821,3.196 18.445,2.091 17.692,1.249 ZM2.165,2.402 C2.697,1.800 3.404,1.499 4.282,1.499 C5.812,1.499 7.241,2.545 8.567,4.636 C7.167,6.711 5.772,7.749 4.380,7.749 C3.509,7.749 2.789,7.434 2.219,6.803 C1.650,6.172 1.365,5.442 1.365,4.612 C1.365,3.741 1.631,3.005 2.165,2.402 ZM16.605,6.778 C16.129,7.425 15.435,7.749 14.524,7.749 C13.784,7.749 13.100,7.501 12.473,7.004 C11.847,6.508 11.131,5.710 10.325,4.612 C10.960,3.668 11.615,2.913 12.290,2.347 C12.966,1.782 13.690,1.499 14.463,1.499 C15.285,1.499 15.966,1.770 16.508,2.311 C17.049,2.852 17.320,3.509 17.320,4.282 C17.320,5.300 17.082,6.132 16.605,6.778 Z" id="path-1" class="cls-2" fill-rule="evenodd"/>
</svg>
